<svg width="50" height="50" viewBox="0 0 50 50" fill="none" xmlns="http://www.w3.org/2000/svg">
<path d="M48.5142 20.9626L40.2725 29.2043L35.569 24.4922L39.1238 20.9626C39.4067 20.6321 39.3876 20.1398 39.0799 19.8321C38.7726 19.5248 38.2803 19.5057 37.9498 19.7886L34.3869 23.3101L32.0389 20.9541L40.2725 12.7123C40.5953 12.3876 40.5953 11.8632 40.2725 11.5384C39.9477 11.2156 39.4234 11.2156 39.0986 11.5384L30.2658 20.3715C30.1081 20.5276 30.0195 20.7406 30.0195 20.9626C30.0195 21.1845 30.1081 21.3971 30.2658 21.5536L31.4479 22.7272L30.2658 23.9097C28.8683 22.5109 26.6797 22.2882 25.0293 23.3768L24.3802 22.7272C23.6001 21.9492 22.5432 21.5122 21.4412 21.5118C20.9205 21.5118 20.4038 21.6077 19.9176 21.7951L18.4941 20.3715L19.0851 19.7886C19.2429 19.6321 19.3315 19.4195 19.3315 19.1976C19.3315 18.9756 19.2429 18.7626 19.0851 18.6065L10.8186 10.3648C10.4922 10.0404 9.96459 10.0425 9.64061 10.3689C9.31622 10.6953 9.31826 11.2225 9.64467 11.5469L17.2953 19.1976L16.7043 19.7801L12.5418 23.9011L9.60321 20.9541C9.44671 20.7963 9.23411 20.7077 9.01217 20.7077C8.79022 20.7077 8.57721 20.7963 8.42112 20.9541C8.09795 21.2788 8.09795 21.8032 8.42112 22.128L11.3678 25.0751L10.1857 26.2487L9.07842 27.4726L1.42776 19.7886C1.27167 19.6309 1.05866 19.5423 0.836715 19.5423C0.614768 19.5423 0.402171 19.6309 0.245669 19.7886C-0.0770884 20.1134 -0.0770884 20.6378 0.245669 20.9626L8.48738 29.2043C8.64469 29.36 8.85729 29.447 9.07842 29.4458C9.29996 29.447 9.51256 29.36 9.66988 29.2043L10.8186 28.0303L11.9922 29.2043C10.3674 30.8299 10.3674 33.4644 11.9922 35.09L13.5576 36.6302C13.7137 36.7879 13.9267 36.8765 14.1486 36.8765C14.3706 36.8765 14.5832 36.7879 14.7397 36.6302C15.0625 36.3054 15.0625 35.781 14.7397 35.4562L13.1995 33.9164C12.7292 33.4477 12.4649 32.8111 12.4649 32.1473C12.4649 31.4831 12.7292 30.8465 13.1995 30.3783L13.7824 29.7953L19.6762 23.9011C20.6656 22.9625 22.2168 22.9625 23.2062 23.9011L28.5008 29.1958C28.7837 29.5262 28.7646 30.0185 28.4573 30.3262C28.1496 30.6335 27.6573 30.6526 27.3273 30.3697L23.4891 26.532C23.1607 26.2056 22.6294 26.2072 22.303 26.5361C21.9765 26.8649 21.9782 27.3958 22.307 27.7222L26.1448 31.5603C26.8586 32.2794 27.9358 32.4965 28.8719 32.1095C29.8085 31.7225 30.4182 30.8083 30.4158 29.7953C30.415 29.1332 30.1516 28.4982 29.6829 28.0303L26.2533 24.6003C27.2094 24.167 28.3329 24.358 29.0919 25.0832L36.16 32.1514C36.6254 32.6205 36.886 33.2554 36.8844 33.9164C36.886 34.5774 36.6254 35.2119 36.16 35.681L33.804 38.0371L31.3898 40.4431L29.6829 42.1581L24.9712 46.8698C24.6464 47.1926 24.122 47.1926 23.7972 46.8698C23.4745 46.5454 23.4745 46.021 23.7972 45.6963L29.1337 40.3846C29.3711 40.1813 29.4748 39.8618 29.4016 39.5578C29.3284 39.2537 29.091 39.0163 28.787 38.9431C28.4825 38.87 28.1634 38.9732 27.9598 39.211L22.6566 44.5056C22.3265 44.7885 21.8343 44.7694 21.5266 44.4621C21.2192 44.1544 21.2001 43.6621 21.4831 43.3317L26.7777 38.0371C26.9354 37.881 27.024 37.668 27.024 37.446C27.024 37.2241 26.9354 37.0115 26.7777 36.855C26.4529 36.5322 25.9285 36.5322 25.6037 36.855L20.3006 42.1581C19.9762 42.4809 19.4518 42.4809 19.127 42.1581C18.9693 42.0016 18.8807 41.789 18.8807 41.5671C18.8807 41.3451 18.9693 41.1321 19.127 40.976L24.4216 35.681C24.5793 35.5249 24.668 35.3119 24.668 35.09C24.668 34.868 24.5793 34.6554 24.4216 34.4989C24.0968 34.1761 23.5724 34.1761 23.2477 34.4989L17.9449 39.8021C17.6185 40.126 17.0909 40.1244 16.7669 39.798C16.4425 39.4716 16.4445 38.9439 16.771 38.62L23.1729 32.2262C23.4993 31.8998 23.4993 31.3705 23.1729 31.0441C22.8464 30.7177 22.3172 30.7177 21.9908 31.0441L15.5555 37.4627C14.5816 38.4379 14.5816 40.0175 15.5555 40.9927C15.9856 41.4317 16.5649 41.6935 17.1787 41.7252C17.2531 42.9926 18.2669 44.0028 19.5347 44.0727C19.605 45.3438 20.6201 46.3584 21.8908 46.4288C21.9148 47.0548 22.1733 47.6495 22.6152 48.0938C23.3655 48.8425 24.507 49.0364 25.4622 48.5767L26.1448 49.2677C26.846 49.9693 27.8963 50.1897 28.8207 49.8287C29.7447 49.4677 30.3674 48.5942 30.4073 47.6027C31.0345 47.5836 31.6308 47.3243 32.0723 46.8783C32.5048 46.4442 32.7625 45.8666 32.7967 45.2548C34.0678 45.1849 35.0824 44.1699 35.1527 42.8987C36.1442 42.8593 37.0177 42.2362 37.3787 41.3122C37.7401 40.3878 37.5197 39.3378 36.8177 38.6366L36.2267 38.0537L37.4088 36.8716C38.1868 36.0916 38.6238 35.0347 38.6242 33.9327C38.6047 33.1087 38.3409 32.3091 37.8665 31.6351L39.1238 30.3783L39.7148 30.9693C40.0396 31.2921 40.564 31.2921 40.8888 30.9693L49.6963 22.1361C50.0191 21.8118 50.0191 21.287 49.6963 20.9626C49.5402 20.8049 49.3272 20.7163 49.1053 20.7163C48.8833 20.7163 48.6707 20.8049 48.5142 20.9626ZM12.0174 26.8482L17.3205 21.5536L18.4941 22.7272L13.1995 28.0303L12.0174 26.8482ZM28.5008 48.0438C28.176 48.3665 27.6516 48.3665 27.3273 48.0438L26.7362 47.4527L27.9183 46.2788L28.5008 46.8617C28.6585 47.0178 28.7471 47.2308 28.7471 47.4527C28.7471 47.6747 28.6585 47.8877 28.5008 48.0438ZM30.8569 45.6877C30.5321 46.0105 30.0077 46.0105 29.6829 45.6877L29.1337 45.0967L29.7248 44.5056L30.3073 43.9227L30.8987 44.5056C31.056 44.6621 31.1447 44.8747 31.1447 45.0967C31.1447 45.3186 31.056 45.5316 30.8987 45.6877H30.8569ZM33.2129 43.3317C32.8881 43.6544 32.3637 43.6544 32.0389 43.3317L31.4479 42.7406L32.6219 41.5671L33.2129 42.1581C33.5357 42.4829 33.5357 43.0073 33.2129 43.3317ZM35.569 40.976C35.4125 41.1333 35.1999 41.2219 34.9779 41.2219C34.756 41.2219 34.543 41.1333 34.3869 40.976L33.804 40.3846L34.9613 39.211L35.5523 39.8021C35.8795 40.122 35.8872 40.6468 35.569 40.976ZM36.7425 30.3783L31.4479 25.0832L32.6219 23.9097L37.925 29.2043L36.7425 30.3783Z" fill="#FFBB01"/>
<path d="M15.8138 13.3201H34.1289C34.5886 13.3201 34.9614 12.9473 34.9614 12.4876V0.832504C34.9614 0.372757 34.5886 0 34.1289 0H15.8138C15.354 0 14.9813 0.372757 14.9813 0.832504V12.4876C14.9813 12.9473 15.354 13.3201 15.8138 13.3201ZM16.6463 9.99005C17.5658 9.99005 18.3113 10.7356 18.3113 11.6551H16.6463V9.99005ZM33.2964 11.6551H31.6313C31.6313 10.7356 32.3769 9.99005 33.2964 9.99005V11.6551ZM33.2964 3.33002C32.3769 3.33002 31.6313 2.5845 31.6313 1.66501H33.2964V3.33002ZM33.2964 4.99502V8.32504C31.457 8.32504 29.9663 9.81607 29.9663 11.6551H19.9763C19.9763 9.81607 18.4853 8.32504 16.6463 8.32504V4.99502C18.4853 4.99502 19.9763 3.504 19.9763 1.66501H29.9663C29.9663 3.504 31.457 4.99502 33.2964 4.99502ZM16.6463 1.66501H18.3113C18.3113 2.5845 17.5658 3.33002 16.6463 3.33002V1.66501Z" fill="#FFBB01"/>
<path d="M24.9711 9.99005C26.8101 9.99005 28.3011 8.49902 28.3011 6.66003C28.3011 4.82104 26.8101 3.33002 24.9711 3.33002C23.1317 3.33002 21.6411 4.82104 21.6411 6.66003C21.6411 8.49902 23.1317 9.99005 24.9711 9.99005ZM24.9711 4.99503C25.8906 4.99503 26.6361 5.74054 26.6361 6.66003C26.6361 7.57953 25.8906 8.32504 24.9711 8.32504C24.0516 8.32504 23.3061 7.57953 23.3061 6.66003C23.3061 5.74054 24.0516 4.99503 24.9711 4.99503Z" fill="#FFBB01"/>
<path d="M31.6311 6.66002C31.6311 7.11977 31.2584 7.49252 30.7986 7.49252C30.3389 7.49252 29.9661 7.11977 29.9661 6.66002C29.9661 6.20027 30.3389 5.82751 30.7986 5.82751C31.2584 5.82751 31.6311 6.20027 31.6311 6.66002Z" fill="#FFBB01"/>
<path d="M19.9761 6.66002C19.9761 7.11977 19.6033 7.49252 19.1436 7.49252C18.6839 7.49252 18.3111 7.11977 18.3111 6.66002C18.3111 6.20027 18.6839 5.82751 19.1436 5.82751C19.6033 5.82751 19.9761 6.20027 19.9761 6.66002Z" fill="#FFBB01"/>
<path d="M49.8049 5.36978L46.4748 0.374755C46.32 0.144272 46.061 0.00646973 45.7838 0.00646973C45.5066 0.00646973 45.2472 0.144272 45.0928 0.374755L41.7627 5.36978C41.6717 5.50514 41.6225 5.66449 41.6213 5.82749V9.15751C41.6213 9.61726 41.994 9.99001 42.4538 9.99001C42.9135 9.99001 43.2863 9.61726 43.2863 9.15751V6.07708L45.7838 2.33081L48.2813 6.07708V14.985C48.2813 15.4448 48.6541 15.8175 49.1138 15.8175C49.5736 15.8175 49.9463 15.4448 49.9463 14.985V5.82749C49.9451 5.66449 49.8959 5.50514 49.8049 5.36978Z" fill="#FFBB01"/>
<path d="M46.6164 11.655V6.66002C46.6164 6.20027 46.2436 5.82751 45.7839 5.82751C45.3241 5.82751 44.9514 6.20027 44.9514 6.66002V11.655C44.9514 12.1148 45.3241 12.4875 45.7839 12.4875C46.2436 12.4875 46.6164 12.1148 46.6164 11.655Z" fill="#FFBB01"/>
<path d="M0.828553 7.49256H1.66106V17.4826C1.66106 17.9424 2.03381 18.3151 2.49356 18.3151C2.95331 18.3151 3.32607 17.9424 3.32607 17.4826V6.66006C3.32607 6.20031 2.95331 5.82755 2.49356 5.82755H2.44356L4.99107 2.26462L7.53859 5.82755H7.48859C7.02884 5.82755 6.65608 6.20031 6.65608 6.66006V8.32507C6.65608 8.78481 7.02884 9.15757 7.48859 9.15757C7.94833 9.15757 8.32109 8.78481 8.32109 8.32507V7.49256H9.15359C9.46456 7.49094 9.7487 7.31655 9.89057 7.03972C10.0324 6.76331 10.008 6.43039 9.82797 6.17714L5.66545 0.349612C5.50854 0.133356 5.25814 0.00531006 4.99107 0.00531006C4.72401 0.00531006 4.4732 0.133356 4.3167 0.349612L0.154176 6.17714C-0.0263079 6.43039 -0.0502912 6.76331 0.091576 7.03972C0.233443 7.31655 0.517584 7.49094 0.828553 7.49256Z" fill="#FFBB01"/>
<path d="M4.99103 11.6551V14.1526C4.99103 14.6123 5.36378 14.9851 5.82353 14.9851C6.28328 14.9851 6.65604 14.6123 6.65604 14.1526V11.6551C6.65604 11.1953 6.28328 10.8226 5.82353 10.8226C5.36378 10.8226 4.99103 11.1953 4.99103 11.6551Z" fill="#FFBB01"/>
</svg>
