<svg width="50" height="50" viewBox="0 0 50 50" fill="none" xmlns="http://www.w3.org/2000/svg">
<path d="M42.1108 36.7029L39.1612 39.6525L37.3947 37.8778C37.068 37.5511 36.5383 37.5511 36.2116 37.8778C35.8849 38.2045 35.8849 38.7342 36.2116 39.0609L38.5696 41.419C38.7259 41.5768 38.939 41.6655 39.1612 41.6655C39.3833 41.6655 39.5961 41.5768 39.7527 41.419L43.3272 37.8778C43.5648 37.6744 43.6686 37.3546 43.5953 37.0503C43.5221 36.7456 43.2845 36.508 42.9802 36.4347C42.6759 36.3615 42.3561 36.4653 42.1523 36.7029H42.1108Z" fill="#FFBB01"/>
<path d="M43.3272 30.9123V28.3292C43.3272 27.8691 42.9542 27.496 42.494 27.496H39.9944V26.6628C39.9944 25.2824 41.1136 24.1632 42.494 24.1632C42.9542 24.1632 43.3272 23.7901 43.3272 23.33C43.3272 22.8698 42.9542 22.4968 42.494 22.4968C40.1933 22.4968 38.328 24.3621 38.328 26.6628V27.496H35.8283C35.3682 27.496 34.9951 27.8691 34.9951 28.3292V30.9123C30.722 32.8708 28.3904 37.5414 29.3925 42.1334C30.3949 46.7258 34.4605 50.0001 39.1612 50.0001C43.8614 50.0001 47.9274 46.7258 48.9299 42.1334C49.9319 37.5414 47.6003 32.8708 43.3272 30.9123ZM39.9944 48.3263V47.4931C39.9944 47.033 39.6213 46.6599 39.1612 46.6599C38.701 46.6599 38.328 47.033 38.328 47.4931V48.3263C34.3547 47.9455 31.2099 44.8006 30.829 40.8274H31.6623C32.1224 40.8274 32.4955 40.4543 32.4955 39.9942C32.4955 39.5341 32.1224 39.161 31.6623 39.161H30.829C31.1431 36.0491 33.1733 33.3753 36.0867 32.237C36.4073 32.1133 36.6188 31.8057 36.62 31.4619V29.1625H41.6193V31.4619C41.6201 31.8057 41.8317 32.1133 42.1523 32.237C45.0982 33.3505 47.1646 36.0291 47.4933 39.161H46.6601C46.1999 39.161 45.8269 39.5341 45.8269 39.9942C45.8269 40.4543 46.1999 40.8274 46.6601 40.8274H47.4933C47.1125 44.8006 43.9676 47.9455 39.9944 48.3263Z" fill="#FFBB01"/>
<path d="M26.8379 43.327C26.6629 43.327 4.16618 43.327 4.16618 43.327C2.78577 43.327 1.66655 42.2078 1.66655 40.8274V14.1646H44.9936V29.5457C44.9936 30.0058 45.3667 30.3789 45.8268 30.3789C46.2869 30.3789 46.66 30.0058 46.66 29.5457V8.33212C46.66 6.03143 44.7946 4.16606 42.4939 4.16606H40.8275V3.33285C40.8275 2.87271 40.4545 2.49964 39.9943 2.49964C39.5342 2.49964 39.1611 2.87271 39.1611 3.33285V6.6657C39.1611 7.58598 38.415 8.33212 37.4947 8.33212C36.5744 8.33212 35.8283 7.58598 35.8283 6.6657V3.33285C35.8283 2.41257 36.5744 1.66642 37.4947 1.66642C37.9548 1.66642 38.3279 1.29335 38.3279 0.833212C38.3279 0.373074 37.9548 0 37.4947 0C35.6541 0 34.1618 1.4923 34.1618 3.33285V4.16606H26.6629V3.33285C26.6629 2.87271 26.2898 2.49964 25.8297 2.49964C25.3696 2.49964 24.9965 2.87271 24.9965 3.33285V6.6657C24.9965 7.58598 24.2503 8.33212 23.3301 8.33212C22.4098 8.33212 21.6636 7.58598 21.6636 6.6657V3.33285C21.6636 2.41257 22.4098 1.66642 23.3301 1.66642C23.7902 1.66642 24.1633 1.29335 24.1633 0.833212C24.1633 0.373074 23.7902 0 23.3301 0C21.4895 0 19.9972 1.4923 19.9972 3.33285V4.16606H12.4983V3.33285C12.4983 2.87271 12.1252 2.49964 11.6651 2.49964C11.205 2.49964 10.8319 2.87271 10.8319 3.33285V6.6657C10.8319 7.58598 10.0857 8.33212 9.16546 8.33212C8.24518 8.33212 7.49903 7.58598 7.49903 6.6657V3.33285C7.49903 2.41257 8.24518 1.66642 9.16546 1.66642C9.6256 1.66642 9.99867 1.29335 9.99867 0.833212C9.99867 0.373074 9.6256 0 9.16546 0C7.3249 0 5.83261 1.4923 5.83261 3.33285V4.16606H4.16618C1.86549 4.16606 0.00012207 6.03143 0.00012207 8.33212V40.8274C0.00012207 43.1281 1.86549 44.9935 4.16618 44.9935H23.3301C27.7044 44.9935 27.7044 44.9935 27.7044 44.1603C27.7057 43.9389 27.6186 43.7257 27.4628 43.5687C27.2976 43.4043 27.071 43.3165 26.8379 43.327ZM4.16618 5.83249H5.83261V6.6657C5.83261 8.50625 7.3249 9.99855 9.16546 9.99855C11.006 9.99855 12.4983 8.50625 12.4983 6.6657V5.83249H19.9972V6.6657C19.9972 8.50625 21.4895 9.99855 23.3301 9.99855C25.1706 9.99855 26.6629 8.50625 26.6629 6.6657V5.83249H34.1618V6.6657C34.1618 8.50625 35.6541 9.99855 37.4947 9.99855C39.3352 9.99855 40.8275 8.50625 40.8275 6.6657V5.83249H42.4939C43.8744 5.83249 44.9936 6.95171 44.9936 8.33212V12.4982H1.66655V8.33212C1.66655 6.95171 2.78577 5.83249 4.16618 5.83249Z" fill="#FFBB01"/>
<path d="M14.998 17.4975C14.998 17.0373 14.6249 16.6642 14.1648 16.6642H7.49911C7.03897 16.6642 6.66589 17.0373 6.66589 17.4975V24.1632C6.66589 24.6233 7.03897 24.9964 7.49911 24.9964H14.1648C14.6249 24.9964 14.998 24.6233 14.998 24.1632V17.4975ZM13.3316 23.3299H8.33232V18.3307H13.3316V23.3299Z" fill="#FFBB01"/>
<path d="M14.1648 29.9956C14.6249 29.9956 14.998 29.6226 14.998 29.1624C14.998 28.7023 14.6249 28.3292 14.1648 28.3292H7.49911C7.03897 28.3292 6.66589 28.7023 6.66589 29.1624V35.8281C6.66589 36.2883 7.03897 36.6613 7.49911 36.6613H14.1648C14.6249 36.6613 14.998 36.2883 14.998 35.8281V32.4953C14.998 32.0351 14.6249 31.6621 14.1648 31.6621C13.7047 31.6621 13.3316 32.0351 13.3316 32.4953V34.9949H8.33232V29.9956H14.1648Z" fill="#FFBB01"/>
<path d="M19.1641 28.3292C18.704 28.3292 18.3309 28.7023 18.3309 29.1624V35.8281C18.3309 36.2883 18.704 36.6613 19.1641 36.6613H25.8298C26.29 36.6613 26.663 36.2883 26.663 35.8281V29.1624C26.663 28.7023 26.29 28.3292 25.8298 28.3292H19.1641ZM24.9966 34.9949H19.9974V29.9956H24.9966V34.9949Z" fill="#FFBB01"/>
<path d="M37.4947 23.3299C37.9549 23.3299 38.328 22.9569 38.328 22.4967V17.4975C38.328 17.0373 37.9549 16.6642 37.4947 16.6642H30.8291C30.3689 16.6642 29.9958 17.0373 29.9958 17.4975V24.1632C29.9958 24.6233 30.3689 24.9964 30.8291 24.9964C31.2892 24.9964 31.6623 24.6233 31.6623 24.1632V18.3307H36.6615V22.4967C36.6615 22.9569 37.0346 23.3299 37.4947 23.3299Z" fill="#FFBB01"/>
<path d="M26.4214 16.9059C26.2648 16.7481 26.052 16.6594 25.8298 16.6594C25.6077 16.6594 25.3945 16.7481 25.2383 16.9059L22.497 19.6553L19.7557 16.9059C19.429 16.5792 18.8993 16.5792 18.5726 16.9059C18.2459 17.2326 18.2459 17.7623 18.5726 18.089L21.322 20.8303L18.5726 23.5716C18.4147 23.7278 18.326 23.941 18.326 24.1632C18.326 24.3853 18.4147 24.5985 18.5726 24.7547C18.7288 24.9126 18.942 25.0012 19.1641 25.0012C19.3863 25.0012 19.5991 24.9126 19.7557 24.7547L22.497 22.0053L25.2383 24.7547C25.3945 24.9126 25.6077 25.0012 25.8298 25.0012C26.052 25.0012 26.2648 24.9126 26.4214 24.7547C26.5792 24.5985 26.6679 24.3853 26.6679 24.1632C26.6679 23.941 26.5792 23.7278 26.4214 23.5716L23.672 20.8303L26.4214 18.089C26.5792 17.9328 26.6679 17.7196 26.6679 17.4975C26.6679 17.2753 26.5792 17.0621 26.4214 16.9059Z" fill="#FFBB01"/>
</svg>
