<svg width="53" height="53" viewBox="0 0 53 53" fill="none" xmlns="http://www.w3.org/2000/svg">
<path d="M51.3339 11.8256C51.1353 11.1934 50.693 10.6658 50.1053 10.3592C49.5171 10.0511 48.8305 9.98975 48.197 10.1884C47.5644 10.3874 47.0368 10.8292 46.7303 11.417L46.3443 12.1587C45.9393 11.948 45.4396 12.1028 45.2247 12.5059L43.2605 16.1983L42.5188 15.8123C42.3224 15.7093 42.0927 15.6888 41.8813 15.7554C41.6695 15.8224 41.4932 15.9707 41.3911 16.1679C41.1821 16.5753 41.3406 17.0752 41.7464 17.2871L42.4881 17.6732L35.9235 30.2305L34.37 34.9738L33.6025 36.565C33.1505 37.4332 33.2465 38.485 33.8483 39.2568L32.0711 41.6323L31.4919 40.3392C31.2309 39.763 30.6666 39.3842 30.0349 39.3613C29.4028 39.3379 28.8121 39.6745 28.51 40.2299L28.2316 40.7501L27.8098 37.432C27.7119 36.6469 27.0754 36.0391 26.2869 35.9767C25.498 35.9147 24.7746 36.416 24.5551 37.176L22.7634 43.4049C22.6385 43.8454 22.8921 44.3039 23.3315 44.4322C23.4144 44.4666 23.5028 44.4857 23.5924 44.4877C23.9502 44.474 24.2593 44.2326 24.3598 43.8889L26.1429 37.6603L26.5753 41.0276C26.6655 41.7462 27.2088 42.3241 27.9205 42.4581C28.6321 42.5921 29.3484 42.2512 29.6936 41.615L29.9805 41.0941L30.5513 42.3798C30.7933 42.9214 31.3052 43.2938 31.8954 43.3568C32.4856 43.4197 33.0645 43.1638 33.4159 42.6854L35.2532 40.149C35.4702 40.1961 35.6925 40.215 35.9144 40.2049C36.8069 40.1746 37.6157 39.6701 38.0356 38.8818L38.8101 37.457L41.8211 33.4705L48.4543 20.76L49.196 21.146C49.3937 21.2486 49.5419 21.4252 49.6082 21.6378C49.6748 21.8488 49.6542 22.0777 49.5517 22.2738L46.4624 28.1818C46.3447 28.3764 46.3117 28.6107 46.3714 28.8306C46.431 29.05 46.5776 29.2357 46.7776 29.3442C46.9741 29.4476 47.2038 29.4681 47.4152 29.4015C47.627 29.3344 47.8032 29.1862 47.9053 28.9889L50.9946 23.0809C51.3027 22.4927 51.3641 21.8061 51.165 21.1726C50.966 20.54 50.5242 20.0124 49.9364 19.7059L49.1947 19.3199L51.1256 15.6284C51.3363 15.2234 51.1815 14.7242 50.7788 14.5089L51.1648 13.7672C51.4815 13.1697 51.5427 12.4692 51.3339 11.8256ZM48.2052 12.1894C48.3073 11.9921 48.4843 11.8434 48.697 11.7772C48.9086 11.7154 49.1358 11.7357 49.3329 11.8341C49.5306 11.9362 49.6789 12.1133 49.7455 12.3255C49.8073 12.5371 49.787 12.7643 49.6886 12.9614L49.3025 13.7031L47.8191 12.9311L48.2052 12.1894ZM37.828 35.9054L37.4017 35.6813L36.1398 35.0165L37.1899 31.804L39.8753 33.2096L37.828 35.9054ZM35.431 38.4151C35.0691 38.1847 34.9413 37.7177 35.1359 37.3349L35.5219 36.5936L37.0049 37.3657L36.6186 38.0989C36.5103 38.3062 36.3204 38.4582 36.0945 38.5185C35.8686 38.5785 35.628 38.5413 35.431 38.4151ZM40.7675 31.805L37.8178 30.2602L43.9963 18.4442L46.9461 19.989L40.7675 31.805ZM47.7185 18.5141L44.7687 16.9693L46.3136 14.0196L49.2633 15.5644L47.7185 18.5141Z" fill="#FFBB01"/>
<path d="M15.1476 38.3436L12.1985 41.285L10.432 39.5186C10.107 39.1955 9.58216 39.1955 9.2571 39.5186C9.09925 39.6752 9.01056 39.888 9.01056 40.1101C9.01056 40.3322 9.09925 40.5454 9.2571 40.7016L11.0236 42.4681C11.336 42.7781 11.7583 42.9518 12.1985 42.9514C12.6411 42.9538 13.0671 42.7801 13.3816 42.4681L16.3225 39.5186C16.6057 39.1878 16.5866 38.6951 16.279 38.3876C15.971 38.0796 15.4784 38.0605 15.1476 38.3436Z" fill="#FFBB01"/>
<path d="M5.33282 40.585C5.33282 44.4966 8.50367 47.6671 12.415 47.6671C16.3262 47.6671 19.4971 44.4966 19.4971 40.585C19.4971 40.1248 19.124 39.7518 18.6639 39.7518C18.2038 39.7518 17.8307 40.1248 17.8307 40.585C17.8307 43.576 15.406 46.0007 12.415 46.0007C9.42392 46.0007 6.99921 43.576 6.99921 40.585C6.99921 37.5939 9.42392 35.1692 12.415 35.1692C13.5874 35.166 14.7286 35.5463 15.6643 36.2526C16.0325 36.5288 16.5549 36.454 16.8307 36.0858C17.1069 35.7176 17.0325 35.1957 16.6643 34.9194C14.5183 33.31 11.6469 33.0512 9.24777 34.2506C6.84827 35.4503 5.33282 37.9027 5.33282 40.585Z" fill="#FFBB01"/>
<path d="M31.2267 7.48155C31.6865 7.46237 32.0437 7.0745 32.0245 6.61436C32.0053 6.15463 31.617 5.79744 31.1573 5.81661L9.51313 6.71925C9.0534 6.73842 8.69621 7.12671 8.71538 7.58644L8.85425 10.9163C8.87344 11.3764 9.26171 11.7332 9.72143 11.7141L31.3656 10.8114C31.8253 10.7922 32.1825 10.4044 32.1634 9.94423C32.1442 9.48451 31.7559 9.12731 31.2962 9.14648L10.4845 10.0144L10.415 8.34947L31.2267 7.48155Z" fill="#FFBB01"/>
<path d="M12.2883 13.2749C11.8286 13.294 11.4714 13.6823 11.4906 14.142C11.5098 14.6022 11.898 14.959 12.3578 14.9398L29.0071 14.2454C29.4669 14.2263 29.8241 13.8384 29.8049 13.3783C29.7857 12.9185 29.3974 12.5613 28.9377 12.5805L12.2883 13.2749Z" fill="#FFBB01"/>
<path d="M34.1756 18.1994L15.8613 18.9632C15.4015 18.9824 15.0444 19.3707 15.0635 19.8304C15.0827 20.2905 15.471 20.6473 15.9307 20.6282L34.245 19.8644C34.7047 19.8452 35.0619 19.4573 35.0427 18.9972C35.0236 18.5375 34.6353 18.1803 34.1756 18.1994Z" fill="#FFBB01"/>
<path d="M26.1625 24.3377C26.1625 23.8776 25.7895 23.5045 25.3294 23.5045H8.66553C8.2054 23.5045 7.83234 23.8776 7.83234 24.3377C7.83234 24.7982 8.2054 25.1709 8.66553 25.1709H25.3294C25.7895 25.1709 26.1625 24.7982 26.1625 24.3377Z" fill="#FFBB01"/>
<path d="M34.4944 23.5045H28.6621C28.202 23.5045 27.8289 23.8776 27.8289 24.3377C27.8289 24.7982 28.202 25.1709 28.6621 25.1709H34.4944C34.9546 25.1709 35.3276 24.7982 35.3276 24.3377C35.3276 23.8776 34.9546 23.5045 34.4944 23.5045Z" fill="#FFBB01"/>
<path d="M16.9974 29.3368C17.4576 29.3368 17.8306 28.9642 17.8306 28.5037C17.8306 28.0435 17.4576 27.6705 16.9974 27.6705H8.66553C8.2054 27.6705 7.83234 28.0435 7.83234 28.5037C7.83234 28.9642 8.2054 29.3368 8.66553 29.3368H16.9974Z" fill="#FFBB01"/>
<path d="M20.3301 29.3368H26.1625C26.6226 29.3368 26.9957 28.9642 26.9957 28.5037C26.9957 28.0435 26.6226 27.6705 26.1625 27.6705H20.3301C19.87 27.6705 19.4969 28.0435 19.4969 28.5037C19.4969 28.9642 19.87 29.3368 20.3301 29.3368Z" fill="#FFBB01"/>
<path d="M40.0383 38.8029C39.5785 38.8221 39.2213 39.2104 39.2405 39.6701L39.5877 47.9948C39.6069 48.4549 39.2496 48.8428 38.7899 48.862L5.49121 50.2506C5.03148 50.2698 4.64321 49.913 4.62402 49.4529L2.74931 4.49963C2.73014 4.0399 3.08733 3.65161 3.54706 3.63244L36.8458 2.24377C37.3055 2.22459 37.6938 2.58179 37.713 3.04152L38.3649 18.6755C38.3841 19.1352 38.7724 19.4924 39.2321 19.4732C39.6919 19.4541 40.0491 19.0658 40.0299 18.6061L39.3779 2.97208C39.3204 1.5929 38.1555 0.521313 36.7763 0.578829L3.47763 1.9675C2.09845 2.02502 1.02686 3.18988 1.08438 4.56906L2.95909 49.5223C3.01662 50.9019 4.18146 51.9731 5.56064 51.9156L38.8594 50.5269C40.2385 50.4694 41.3101 49.3049 41.2526 47.9253L40.9054 39.6007C40.8863 39.1409 40.498 38.7837 40.0383 38.8029Z" fill="#FFBB01"/>
</svg>
