<svg width="50" height="50" viewBox="0 0 50 50" fill="none" xmlns="http://www.w3.org/2000/svg">
<path d="M48.3277 35.6352V33.3353H49.1609C49.3908 33.3369 49.6109 33.2433 49.7692 33.0769C49.9107 32.9187 49.9909 32.7144 49.9941 32.5021L48.5026 4.17201C48.3606 1.87898 46.459 0.0916748 44.1615 0.0916748C41.864 0.0916748 39.9624 1.87898 39.8204 4.17201L38.3288 32.5021C38.3219 32.7291 38.4025 32.9496 38.5538 33.1188C38.719 33.2698 38.9383 33.3479 39.1621 33.3353H39.9953V35.6352L38.4204 38.7932C38.3016 39.0288 38.3016 39.3071 38.4204 39.5431L43.4198 49.5419C43.4605 49.6339 43.5203 49.716 43.5947 49.7836C43.692 49.8735 43.8092 49.9394 43.9365 49.9752H44.3946C44.5224 49.9394 44.6395 49.8735 44.7364 49.7836C44.8112 49.716 44.8706 49.6339 44.9113 49.5419L49.9107 39.5431C50.0295 39.3071 50.0295 39.0288 49.9107 38.7932L48.3277 35.6352ZM40.0368 31.6688L40.3871 25.0029H47.9359L48.3277 31.6688H40.0368ZM41.4868 4.21392C41.4868 2.73663 42.6842 1.53885 44.1615 1.53885C45.6388 1.53885 46.8362 2.73663 46.8362 4.21392L47.8443 23.3784H40.4787L40.5702 21.7119H45.2112C45.6717 21.7119 46.0444 21.3388 46.0444 20.8786C46.0444 20.4181 45.6717 20.0454 45.2112 20.0454H40.6536L41.4868 4.21392ZM46.6612 33.3353V35.0018H41.6618V33.3353H46.6612ZM44.9947 45.6341V40.0012H45.828C46.2881 40.0012 46.6612 39.6281 46.6612 39.1679C46.6612 38.7078 46.2881 38.3347 45.828 38.3347H42.495C42.0349 38.3347 41.6618 38.7078 41.6618 39.1679C41.6618 39.6281 42.0349 40.0012 42.495 40.0012H43.3283V45.6341L40.0954 39.1679L41.3453 36.6682H46.9777L48.2276 39.1679L44.9947 45.6341Z" fill="#FFBB01"/>
<path d="M28.3301 10.8379C28.7902 10.8379 29.1633 10.4648 29.1633 10.0047C29.1633 9.54453 28.7902 9.17145 28.3301 9.17145H6.66594C6.20579 9.17145 5.8327 9.54453 5.8327 10.0047V13.3376C5.8327 13.7978 6.20579 14.1709 6.66594 14.1709H28.3301C28.7902 14.1709 29.1633 13.7978 29.1633 13.3376C29.1633 12.8775 28.7902 12.5044 28.3301 12.5044H7.49917V10.8379H28.3301Z" fill="#FFBB01"/>
<path d="M29.1633 18.337C29.1633 17.8769 28.7902 17.5038 28.3301 17.5038H9.99889C9.53873 17.5038 9.16565 17.8769 9.16565 18.337C9.16565 18.7972 9.53873 19.1703 9.99889 19.1703H28.3301C28.7902 19.1703 29.1633 18.7972 29.1633 18.337Z" fill="#FFBB01"/>
<path d="M4.99945 22.5032C4.99945 22.9633 5.37254 23.3364 5.83269 23.3364H19.1645C19.6246 23.3364 19.9977 22.9633 19.9977 22.5032C19.9977 22.043 19.6246 21.6699 19.1645 21.6699H5.83269C5.37254 21.6699 4.99945 22.043 4.99945 22.5032Z" fill="#FFBB01"/>
<path d="M24.1639 21.6699C23.7038 21.6699 23.3307 22.043 23.3307 22.5032C23.3307 22.9633 23.7038 23.3364 24.1639 23.3364H27.4969C27.957 23.3364 28.3301 22.9633 28.3301 22.5032C28.3301 22.043 27.957 21.6699 27.4969 21.6699H24.1639Z" fill="#FFBB01"/>
<path d="M16.6648 26.6693C16.6648 26.2092 16.2917 25.8361 15.8315 25.8361H5.83269C5.37254 25.8361 4.99945 26.2092 4.99945 26.6693C4.99945 27.1295 5.37254 27.5026 5.83269 27.5026H15.8315C16.2917 27.5026 16.6648 27.1295 16.6648 26.6693Z" fill="#FFBB01"/>
<path d="M15.8315 30.8356C15.8315 30.3755 15.4584 30.0024 14.9983 30.0024H5.83269C5.37254 30.0024 4.99945 30.3755 4.99945 30.8356C4.99945 31.2958 5.37254 31.6689 5.83269 31.6689H14.9983C15.4584 31.6689 15.8315 31.2958 15.8315 30.8356Z" fill="#FFBB01"/>
<path d="M5.83269 34.1685C5.37254 34.1685 4.99945 34.5416 4.99945 35.0018C4.99945 35.4619 5.37254 35.835 5.83269 35.835H11.6653C12.1255 35.835 12.4986 35.4619 12.4986 35.0018C12.4986 34.5416 12.1255 34.1685 11.6653 34.1685H5.83269Z" fill="#FFBB01"/>
<path d="M32.4962 0.00579834H2.49971C1.11925 0.00579834 0 1.12505 0 2.50551V40.8344C0 42.2148 1.11925 43.3341 2.49971 43.3341H16.6647C17.1249 43.3341 17.498 42.961 17.498 42.5009C17.498 42.0407 17.1249 41.6676 16.6647 41.6676H2.49971C2.03956 41.6676 1.66647 41.2945 1.66647 40.8344V7.50493H33.3295V40.8344C33.3295 41.2945 32.9564 41.6676 32.4962 41.6676H29.9965C29.5364 41.6676 29.1633 42.0407 29.1633 42.5009C29.1633 42.961 29.5364 43.3341 29.9965 43.3341H32.4962C33.8767 43.3341 34.9959 42.2148 34.9959 40.8344V2.50551C34.9959 1.12505 33.8767 0.00579834 32.4962 0.00579834ZM1.66647 5.83845V2.50551C1.66647 2.04536 2.03956 1.67227 2.49971 1.67227H32.4962C32.9564 1.67227 33.3295 2.04536 33.3295 2.50551V5.83845H1.66647Z" fill="#FFBB01"/>
<path d="M23.3306 30.8355C21.9501 30.8355 20.8309 31.9548 20.8309 33.3352C20.8309 34.7157 21.9501 35.8349 23.3306 35.8349C24.711 35.8349 25.8303 34.7157 25.8303 33.3352C25.8303 31.9548 24.711 30.8355 23.3306 30.8355ZM23.3306 34.1685C22.8704 34.1685 22.4973 33.7954 22.4973 33.3352C22.4973 32.8751 22.8704 32.502 23.3306 32.502C23.7907 32.502 24.1638 32.8751 24.1638 33.3352C24.1638 33.7954 23.7907 34.1685 23.3306 34.1685Z" fill="#FFBB01"/>
<path d="M29.9965 33.3352C29.9953 32.4092 29.4826 31.5593 28.6632 31.1272C28.9358 30.2419 28.6966 29.2789 28.042 28.6239C27.3869 27.9692 26.4239 27.73 25.5386 28.0026C25.1049 27.1856 24.2558 26.6746 23.3306 26.6746C22.4054 26.6746 21.5563 27.1856 21.1226 28.0026C20.2373 27.73 19.2743 27.9692 18.6192 28.6239C17.9646 29.2789 17.7254 30.2419 17.998 31.1272C17.1806 31.5609 16.67 32.41 16.67 33.3352C16.67 34.2604 17.1806 35.1099 17.998 35.5432C17.7254 36.4265 17.9626 37.3879 18.6143 38.0429C18.7771 38.2053 18.9622 38.3428 19.1644 38.4514V49.1667C19.166 49.5032 19.3699 49.8055 19.6811 49.9332C19.9911 50.0638 20.3496 49.9947 20.5892 49.7583L23.3306 47.0088L26.072 49.7583C26.229 49.9145 26.4422 50.0012 26.6635 50C26.773 50.0028 26.8812 49.98 26.9801 49.9332C27.2913 49.8055 27.4951 49.5032 27.4968 49.1667V38.4596C27.699 38.3509 27.8841 38.2134 28.0468 38.0515C28.6986 37.396 28.9358 36.435 28.6632 35.5518C29.4851 35.1181 29.9985 34.2645 29.9965 33.3352ZM23.9222 45.2422C23.7659 45.0844 23.5527 44.9957 23.3306 44.9957C23.1084 44.9957 22.8953 45.0844 22.739 45.2422L20.8309 47.1585V38.7431L21.1226 38.6679C21.5563 39.4852 22.4054 39.9958 23.3306 39.9958C24.2558 39.9958 25.1049 39.4852 25.5386 38.6679L25.8303 38.7431V47.1585L23.9222 45.2422ZM27.4968 34.1685H27.3552C27.0159 34.1668 26.7091 34.3711 26.5801 34.6852C26.452 34.9972 26.5244 35.3557 26.7636 35.5933L26.8637 35.6934C27.1867 36.0184 27.1867 36.5433 26.8637 36.8683C26.7718 36.9648 26.657 37.0364 26.5301 37.0767H26.4052C26.1428 37.1173 25.8767 37.0307 25.6887 36.8431L25.5886 36.743C25.3502 36.503 24.9901 36.4306 24.6777 36.5604C24.3648 36.6901 24.1618 36.9965 24.1638 37.335V37.5014C24.1638 37.9616 23.7907 38.3347 23.3306 38.3347C22.8704 38.3347 22.4974 37.9616 22.4974 37.5014V37.3598C22.499 37.0205 22.2947 36.7137 21.9806 36.5848C21.8802 36.5449 21.7723 36.5254 21.6641 36.5266C21.4428 36.5254 21.2296 36.6124 21.0725 36.7683L20.9725 36.8683C20.7845 37.0559 20.5184 37.1426 20.256 37.1015H20.1311C20.0041 37.0616 19.8894 36.99 19.7975 36.8932C19.4744 36.5681 19.4744 36.0432 19.7975 35.7182L19.9061 35.6185C20.1453 35.3805 20.2177 35.022 20.0892 34.71C19.9602 34.3963 19.6538 34.1917 19.3145 34.1937H19.1644C18.7043 34.1937 18.3312 33.8206 18.3312 33.3605C18.3312 32.8999 18.7043 32.5272 19.1644 32.5272H19.306C19.6453 32.5288 19.9521 32.3242 20.081 32.0105C20.2092 31.6985 20.1368 31.34 19.8976 31.102L19.7975 31.0023C19.4708 30.6777 19.4691 30.15 19.7934 29.8233C20.1181 29.4966 20.6458 29.4945 20.9725 29.8192L21.0725 29.9274C21.3102 30.1666 21.669 30.2391 21.9806 30.1105C22.2947 29.9815 22.499 29.6752 22.4974 29.3359V29.169C22.4974 28.7089 22.8704 28.3358 23.3306 28.3358C23.7907 28.3358 24.1638 28.7089 24.1638 29.169V29.3106C24.1622 29.6504 24.3664 29.9567 24.6805 30.0857C24.9922 30.2138 25.351 30.1418 25.5886 29.9022L25.6887 29.8025C26.013 29.4758 26.5411 29.4738 26.8678 29.798C27.1945 30.1227 27.1961 30.6504 26.8718 30.9771L26.7636 31.0772C26.5244 31.3148 26.452 31.6736 26.5801 31.9853C26.7091 32.2994 27.0159 32.5036 27.3552 32.502H27.4968C27.9569 32.502 28.33 32.8751 28.33 33.3352C28.33 33.7954 27.9569 34.1685 27.4968 34.1685Z" fill="#FFBB01"/>
</svg>
