<svg width="50" height="50" viewBox="0 0 50 50" fill="none" xmlns="http://www.w3.org/2000/svg">
<path d="M49.1668 24.1667H30.1084C29.6482 24.1667 29.275 24.5399 29.275 25.0001C29.275 25.4603 29.6482 25.8334 30.1084 25.8334H48.3335V34.1667H44.1668V28.3334C44.1668 27.8732 43.7937 27.5001 43.3335 27.5001C42.8732 27.5001 42.5001 27.8732 42.5001 28.3334V34.1667H20.0001V25.8334H25.0001C25.4603 25.8334 25.8335 25.4603 25.8335 25.0001C25.8335 24.5399 25.4603 24.1667 25.0001 24.1667H19.1668C18.7066 24.1667 18.3335 24.5399 18.3335 25.0001V35.0001C18.3335 35.4603 18.7066 35.8334 19.1668 35.8334H26.6668V37.5001H19.1668C18.7066 37.5001 18.3335 37.8732 18.3335 38.3334V44.1667H15.8335V43.3334C15.8335 42.8732 15.4603 42.5001 15.0001 42.5001H12.5001V38.3334C12.5001 37.8732 12.127 37.5001 11.6668 37.5001C11.2066 37.5001 10.8335 37.8732 10.8335 38.3334V43.3334C10.8335 43.7936 11.2066 44.1667 11.6668 44.1667H14.1668V45.8334H5.83346V44.1667H8.33346C8.79366 44.1667 9.16679 43.7936 9.16679 43.3334V38.3334C9.16679 37.8732 8.79366 37.5001 8.33346 37.5001C7.87325 37.5001 7.50012 37.8732 7.50012 38.3334V42.5001H5.00012C4.53992 42.5001 4.16679 42.8732 4.16679 43.3334V44.1667H0.833455C0.37325 44.1667 0.00012207 44.5399 0.00012207 45.0001C0.00012207 45.4603 0.37325 45.8334 0.833455 45.8334H4.16679V46.6667C4.16679 47.127 4.53992 47.5001 5.00012 47.5001H15.0001C15.4603 47.5001 15.8335 47.127 15.8335 46.6667V45.8334H18.3335V48.3334C18.3335 48.7936 18.7066 49.1667 19.1668 49.1667H49.1668C49.627 49.1667 50.0001 48.7936 50.0001 48.3334V38.3334C50.0001 37.8732 49.627 37.5001 49.1668 37.5001H41.6668V35.8334H49.1668C49.627 35.8334 50.0001 35.4603 50.0001 35.0001V25.0001C50.0001 24.5399 49.627 24.1667 49.1668 24.1667ZM48.3335 47.5001H20.0001V39.1667H42.5001V45.0001C42.5001 45.4603 42.8732 45.8334 43.3335 45.8334C43.7937 45.8334 44.1668 45.4603 44.1668 45.0001V39.1667H48.3335V47.5001ZM40.0001 37.5001H28.3335V35.8334H40.0001V37.5001Z" fill="#FFBB01"/>
<path d="M25 27.5001C23.6194 27.5001 22.5 28.6194 22.5 30.0001C22.5 31.3811 23.6194 32.5001 25 32.5001C26.3806 32.5001 27.5 31.3811 27.5 30.0001C27.5 28.6194 26.3806 27.5001 25 27.5001ZM25 30.8334C24.5398 30.8334 24.1667 30.4603 24.1667 30.0001C24.1667 29.5399 24.5398 29.1667 25 29.1667C25.4602 29.1667 25.8333 29.5399 25.8333 30.0001C25.8333 30.4603 25.4602 30.8334 25 30.8334Z" fill="#FFBB01"/>
<path d="M30.0002 32.5001C30.4604 32.5001 30.8335 32.1269 30.8335 31.6667V28.3334C30.8335 27.8732 30.4604 27.5001 30.0002 27.5001C29.54 27.5001 29.1669 27.8732 29.1669 28.3334V31.6667C29.1669 32.1269 29.54 32.5001 30.0002 32.5001Z" fill="#FFBB01"/>
<path d="M34.1668 31.6667V28.3334C34.1668 27.8732 33.7937 27.5001 33.3335 27.5001C32.8733 27.5001 32.5001 27.8732 32.5001 28.3334V31.6667C32.5001 32.1269 32.8733 32.5001 33.3335 32.5001C33.7937 32.5001 34.1668 32.1269 34.1668 31.6667Z" fill="#FFBB01"/>
<path d="M37.5 31.6667V28.3334C37.5 27.8732 37.1269 27.5001 36.6667 27.5001C36.2065 27.5001 35.8334 27.8732 35.8334 28.3334V31.6667C35.8334 32.1269 36.2065 32.5001 36.6667 32.5001C37.1269 32.5001 37.5 32.1269 37.5 31.6667Z" fill="#FFBB01"/>
<path d="M40.8333 31.6667V28.3334C40.8333 27.8732 40.4602 27.5001 40 27.5001C39.5398 27.5001 39.1666 27.8732 39.1666 28.3334V31.6667C39.1666 32.1269 39.5398 32.5001 40 32.5001C40.4602 32.5001 40.8333 32.1269 40.8333 31.6667Z" fill="#FFBB01"/>
<path d="M26.6667 42.5001C26.2065 42.5001 25.8333 42.8732 25.8333 43.3334C25.8333 43.7936 25.4602 44.1668 25 44.1668C24.5398 44.1668 24.1667 43.7936 24.1667 43.3334C24.1667 42.8732 24.5398 42.5001 25 42.5001C25.4602 42.5001 25.8333 42.127 25.8333 41.6668C25.8333 41.2066 25.4602 40.8334 25 40.8334C23.6194 40.8334 22.5 41.9528 22.5 43.3334C22.5 44.7145 23.6194 45.8334 25 45.8334C26.3806 45.8334 27.5 44.7145 27.5 43.3334C27.5 42.8732 27.1269 42.5001 26.6667 42.5001Z" fill="#FFBB01"/>
<path d="M30.0002 40.8334C29.54 40.8334 29.1669 41.2066 29.1669 41.6668V45.0001C29.1669 45.4603 29.54 45.8334 30.0002 45.8334C30.4604 45.8334 30.8335 45.4603 30.8335 45.0001V41.6668C30.8335 41.2066 30.4604 40.8334 30.0002 40.8334Z" fill="#FFBB01"/>
<path d="M33.3335 40.8334C32.8733 40.8334 32.5001 41.2066 32.5001 41.6668V45.0001C32.5001 45.4603 32.8733 45.8334 33.3335 45.8334C33.7937 45.8334 34.1668 45.4603 34.1668 45.0001V41.6668C34.1668 41.2066 33.7937 40.8334 33.3335 40.8334Z" fill="#FFBB01"/>
<path d="M36.6667 40.8334C36.2065 40.8334 35.8334 41.2066 35.8334 41.6668V45.0001C35.8334 45.4603 36.2065 45.8334 36.6667 45.8334C37.1269 45.8334 37.5 45.4603 37.5 45.0001V41.6668C37.5 41.2066 37.1269 40.8334 36.6667 40.8334Z" fill="#FFBB01"/>
<path d="M40 40.8334C39.5398 40.8334 39.1666 41.2066 39.1666 41.6668V45.0001C39.1666 45.4603 39.5398 45.8334 40 45.8334C40.4602 45.8334 40.8333 45.4603 40.8333 45.0001V41.6668C40.8333 41.2066 40.4602 40.8334 40 40.8334Z" fill="#FFBB01"/>
<path d="M6.31688 29.8419C6.42715 29.8907 6.54637 29.9159 6.66681 29.9167C7.05296 29.911 7.38418 29.6404 7.46759 29.2636C7.5506 28.8865 7.36424 28.5019 7.01675 28.3335C3.09951 26.5382 0.961246 22.2572 1.87962 18.047C2.79759 13.8368 6.5244 10.8347 10.8335 10.8335C11.679 10.8331 12.5205 10.9507 13.3335 11.1834C13.7485 11.3034 14.1859 11.0862 14.3418 10.6837C16.4389 5.24428 21.6705 1.65948 27.5001 1.66681C34.14 1.69936 39.8773 6.31362 41.3336 12.7919C41.408 13.126 41.679 13.3803 42.0167 13.4336C45.6536 14.0146 48.3306 17.1506 48.3335 20.8335C48.3298 21.076 48.3131 21.3181 48.2834 21.5586C48.2529 21.7824 48.3148 22.0094 48.4543 22.1868C48.5943 22.3642 48.8002 22.4774 49.0252 22.5001C49.2478 22.5233 49.4704 22.4562 49.6425 22.3134C49.815 22.171 49.9228 21.9651 49.942 21.7421C49.9786 21.4406 49.9981 21.1374 50.0001 20.8335C50.0172 16.5366 47.031 12.811 42.8334 11.8918C41.0036 4.91388 34.7141 0.0359487 27.5001 0.000141419C21.2404 -0.0197967 15.5637 3.6708 13.0417 9.40037C12.3162 9.24453 11.5757 9.16599 10.8335 9.16681C5.74559 9.1721 1.34699 12.7174 0.260969 17.6881C-0.824643 22.6588 1.69448 27.7154 6.31688 29.8419Z" fill="#FFBB01"/>
<path d="M13.3334 30.5087C13.4022 30.5205 13.473 30.5205 13.5418 30.5087C14.4919 30.267 15.4034 29.8939 16.2501 29.4003C16.4418 29.2888 16.5809 29.1057 16.6371 28.8917C16.6932 28.6772 16.6619 28.4498 16.55 28.2585C16.3185 27.8647 15.8131 27.7308 15.4168 27.9587C14.699 28.3745 13.9279 28.6915 13.1251 28.9002C12.6649 28.9576 12.3386 29.3775 12.3959 29.8377C12.4533 30.2979 12.8732 30.6243 13.3334 30.5669V30.5087Z" fill="#FFBB01"/>
<path d="M10.0002 35.8334C10.4605 35.8334 10.8336 35.4603 10.8336 35.0001V21.917L12.6418 24.6253C12.7952 24.8581 13.0549 24.9989 13.3336 25.0001C13.4976 25.0021 13.6579 24.9525 13.7917 24.8585C14.1722 24.6042 14.2764 24.0911 14.0253 23.7086L10.692 18.7086C10.692 18.7086 10.692 18.7086 10.6501 18.6667C10.4922 18.4697 10.2529 18.355 10.0002 18.355C9.74756 18.355 9.5083 18.4697 9.35043 18.6667C9.35043 18.6667 9.35043 18.6667 9.30852 18.7086L5.97518 23.7086C5.77173 24.0878 5.89055 24.5594 6.24944 24.797C6.60791 25.0347 7.08846 24.9602 7.35865 24.6253L9.16691 21.917V35.0001C9.16691 35.4603 9.54004 35.8334 10.0002 35.8334Z" fill="#FFBB01"/>
<path d="M31.2916 15.1417C30.9095 14.8907 30.396 14.9948 30.1417 15.3753L28.3334 18.0836V8.33346C28.3334 7.87325 27.9603 7.50012 27.5001 7.50012C27.0399 7.50012 26.6667 7.87325 26.6667 8.33346V18.0836L24.8585 15.3753C24.7087 15.0966 24.4145 14.9265 24.0984 14.9362C23.7822 14.946 23.499 15.1336 23.3668 15.4209C23.2349 15.7081 23.2769 16.0455 23.475 16.292L26.8083 21.292C26.9634 21.5223 27.2226 21.6603 27.5001 21.6603C27.7776 21.6603 28.0368 21.5223 28.1918 21.292L31.5251 16.292C31.7762 15.9095 31.672 15.396 31.2916 15.1417Z" fill="#FFBB01"/>
</svg>
